<?xml version="1.0" encoding="UTF-8"?>
<svg width="752pt" height="752pt" version="1.1" viewBox="0 0 752 752" xmlns="http://www.w3.org/2000/svg">
 <g>
  <path d="m287.75 298.95c6.0117 4.9023 11.812 8.9375 17.422 12.836 3.4766 2.4141 6.832 4.7539 10.191 7.25-6.6016 6.3008-12.523 14.5-13.637 24.859-1.0117 9.3984 2.293 18.828 9.3125 26.551l-0.003906 0.003906c6.3398 6.918 14.73 11.621 23.941 13.418 14.031 2.6133 29.586-0.71875 47.547-10.188 4.1523-2.1875 8.2148-4.543 12.145-6.8164 8.4766-4.9102 16.484-9.5469 25.043-12.48 12.855-4.4023 25.152-3.5195 32.895 2.3633 8.8438 6.7188 11.973 20.891 7.2773 32.961-4.3594 11.211-14.918 21.188-28.969 27.379-13.211 5.8164-27.848 8.1484-44.23 10.391h-0.003906c-5.0586 0.69531-8.6016 5.3594-7.9062 10.418 0.69141 5.0625 5.3594 8.6055 10.418 7.9102 17.785-2.4375 33.762-5.0078 49.172-11.789 2.6641-1.1719 5.2148-2.4609 7.6758-3.832l26.344 15.887c4.375 2.6367 10.059 1.2305 12.695-3.1445 2.6406-4.375 1.2305-10.059-3.1406-12.699l-19.73-11.895c6.5078-6.1367 11.598-13.617 14.914-21.922 7.6992-19.801 2.0938-42.676-13.328-54.395-12.656-9.6211-31.379-11.535-50.078-5.1328-10.266 3.5156-19.449 8.832-28.32 13.973-3.9453 2.2852-7.6719 4.4414-11.496 6.4609-14.137 7.4531-25.762 10.188-35.535 8.3672-9.4492-1.7578-19.266-10.324-18.246-19.805 0.98047-9.1016 10.98-16.574 20.281-22.863 5.6055-3.793 11.961-8.0938 18.102-8.832 4.2617-0.51953 9.0078 1.5859 9.7539 4.3242v-0.003906c1.3438 4.9297 6.4297 7.8359 11.359 6.4883 4.9258-1.3438 7.832-6.4297 6.4883-11.355-2.7422-10.051-14.129-19.711-29.812-17.82-10.332 1.2461-18.855 6.875-25.75 11.535-5.0859-3.9844-10.016-7.418-14.809-10.75-5.5664-3.8711-10.828-7.5273-16.289-11.984v-0.003906c-1.9023-1.5508-4.3438-2.2812-6.7812-2.0352-2.4414 0.25-4.6836 1.457-6.2344 3.3594-3.2305 3.957-2.6367 9.7852 1.3203 13.012z"/>
  <path d="m204.48 480.19c19.406 31.582 57.973 45.348 79.238 50.742 31.477 7.9844 63.945 10.316 95.348 12.57 15.633 1.1211 31.512 2.2617 47.461 2.2617 17.594 0 35.273-1.3867 52.781-5.7188 38.309-9.4727 68.504-33.137 80.766-63.305 13.496-33.207 10.332-72.176 7.543-106.55-0.35547-4.3594-0.70312-8.6758-1.0156-12.934l-0.003906-0.003906c-0.058594-0.75781-0.21094-1.5078-0.45703-2.2305-0.64453-5.5156-1.8672-10.949-3.6484-16.207-15.09-44.215-56.414-58.227-92.875-70.594-4.1094-1.3945-8.3594-2.8359-12.438-4.2734-41.137-14.523-76.859-23.43-117.49-19.711-28.363 2.5703-55.973 10.523-81.359 23.434-20.219 10.398-55.141 33.523-61.844 71.559v-0.003906c-1.1289 6.5273-1.3984 13.176-0.79688 19.773l1.3359 66.645c0.078125 3.8438-0.054687 7.6758-0.19141 11.734-0.48438 14.145-0.98438 28.77 7.6484 42.816zm15.762-9.6836c-5.7148-9.3008-5.3516-20.051-4.9258-32.5 0.14062-4.125 0.28516-8.3906 0.19922-12.734l-0.36328-17.953c8.1758 10.875 18.793 21.02 32.164 30.734l-1.4805 57.215c-11.137-7.1211-19.918-15.523-25.594-24.762zm43.859 34.359 1.418-54.879v-0.003906c12.461 7.3672 25.531 13.656 39.066 18.793l-1.7578 47.488c-4.8906-0.96875-9.75-2.0352-14.559-3.2578-8.2578-2.0742-16.34-4.7969-24.168-8.1406zm104.81-20.566 0.95703 39.988c-16.152-1.1953-32.5-2.5859-48.648-4.9023l1.6484-44.41c9.3906 2.8125 18.934 5.0898 28.582 6.8242 5.7891 1.0312 11.609 1.8633 17.461 2.5zm19.496 41.324-0.95703-39.977c3.2695 0.12109 6.5352 0.19531 9.8047 0.19531h-0.003906c14.996 0.007812 29.965-1.3086 44.73-3.9375l2.1289 44.785c-18.445 1.2383-37.211 0.21875-55.703-1.0664zm86.461-3.5312c-4.0703 1.0078-8.1758 1.832-12.301 2.5117-0.015625-0.035156-0.023438-0.070312-0.039062-0.10547l-2.2188-46.602c17.828-4.6406 33.637-10.988 47.422-19.047l3.6602 47.562h-0.007813c-11.199 7.25-23.547 12.555-36.516 15.68zm53.941-30.375-3.4414-44.734c-0.007812-0.09375-0.027343-0.18359-0.035156-0.27734 5.0703-4.0859 9.8125-8.5547 14.191-13.371 4.5195-4.9961 8.5625-10.402 12.078-16.148-0.0625 18.547-2.1133 36.48-8.6641 52.594v-0.003906c-3.3594 8.0977-8.1445 15.531-14.129 21.941zm-314.11-149.29c5.3164-30.168 34.914-49.484 52.086-58.316 23.273-11.824 48.586-19.109 74.586-21.457 5.793-0.53125 11.461-0.78516 17.059-0.78516 30.531 0 58.82 7.5977 92.59 19.516 4.1836 1.4805 8.4883 2.9375 12.652 4.3477 35.566 12.062 69.164 23.457 81.312 59.051 8.2656 24.223 0.73828 54.109-19.188 76.141-17.246 19.07-42.531 32.637-75.152 40.32l-0.003906-0.003906c-17.379 4.0625-35.172 6.1016-53.023 6.0742-46.586 0-93.457-13.559-132.11-39.152-17.754-11.758-30.574-23.898-39.195-37.121h0.003906c-6.7148-10.082-10.887-21.637-12.16-33.68l-0.03125-1.5039c-0.015625-0.52734-0.070312-1.0547-0.17578-1.5742-0.17578-3.9648 0.074219-7.9414 0.75-11.855z"/>
 </g>
</svg>
