<?xml version="1.0" encoding="UTF-8"?>
<svg width="752pt" height="752pt" version="1.1" viewBox="0 0 752 752" xmlns="http://www.w3.org/2000/svg">
 <defs>
  <clipPath id="c">
   <path d="m171 253h214v359.79h-214z"/>
  </clipPath>
  <clipPath id="b">
   <path d="m367 253h214v359.79h-214z"/>
  </clipPath>
  <clipPath id="a">
   <path d="m171 139.21h410v245.79h-410z"/>
  </clipPath>
 </defs>
 <g clip-path="url(#c)">
  <path d="m188.2 493.62 179.63 97.301v-210.23l-179.63-104.79zm187.8 119.18c-1.3398 0-2.6719-0.32422-3.8945-0.98828l-195.96-106.14c-2.6289-1.4297-4.2734-4.1836-4.2734-7.1797v-236.79c0-2.9219 1.5625-5.625 4.1016-7.0781 2.5391-1.4531 5.6562-1.4453 8.1797 0.023438l195.96 114.31c2.5156 1.4609 4.0508 4.1484 4.0508 7.0547v228.62c0 2.875-1.5195 5.5352-3.9844 7.0156-1.2891 0.76562-2.7344 1.1484-4.1797 1.1484z" fill-rule="evenodd"/>
 </g>
 <path d="m237.2 464.43 81.652 44.234v-99.836l-81.652-47.629zm89.816 66.105c-1.3398 0-2.6719-0.32422-3.8945-0.98828l-97.984-53.07c-2.6289-1.4297-4.2695-4.1836-4.2695-7.1797v-122.31c0-2.9258 1.5586-5.625 4.0977-7.082 2.5391-1.4531 5.6602-1.4453 8.1836 0.027344l97.98 57.156c2.5156 1.4609 4.0508 4.1484 4.0508 7.0547v118.23c0 2.875-1.5195 5.5352-3.9844 7.0156-1.2891 0.76562-2.7344 1.1484-4.1797 1.1484z" fill-rule="evenodd"/>
 <g clip-path="url(#b)">
  <path d="m384.17 380.69v210.23l179.63-97.305v-217.71zm-8.1641 232.1c-1.4453 0-2.8906-0.38281-4.1836-1.1523-2.4648-1.4766-3.9844-4.1367-3.9844-7.0117v-228.62c0-2.9062 1.5352-5.5938 4.0508-7.0547l195.96-114.31c2.5234-1.4805 5.6406-1.4805 8.1797-0.027344 2.543 1.457 4.1016 4.1562 4.1016 7.082v236.79c0 2.9961-1.6406 5.75-4.2695 7.1758l-195.96 106.15c-1.2266 0.66406-2.5586 0.98828-3.8945 0.98828z" fill-rule="evenodd"/>
 </g>
 <path d="m433.16 408.83v99.836l81.648-44.23v-103.23zm-8.168 121.71c-1.4453 0-2.8906-0.38281-4.1797-1.1523-2.4648-1.4766-3.9844-4.1367-3.9844-7.0117v-118.23c0-2.9102 1.5352-5.5938 4.0508-7.0547l97.98-57.156c2.5234-1.4805 5.6523-1.4805 8.1836-0.027344 2.5391 1.4531 4.0977 4.1562 4.0977 7.082v122.31c0 2.9961-1.6406 5.75-4.2695 7.1758l-97.984 53.074c-1.2227 0.66406-2.5547 0.98828-3.8945 0.98828z" fill-rule="evenodd"/>
 <g clip-path="url(#a)">
  <path d="m196.24 261.69 179.76 104.86 179.76-104.86-179.76-104.86zm179.76 122.48c-1.418 0-2.8477-0.36719-4.1133-1.1133l-195.96-114.31c-2.5156-1.4609-4.0508-4.1562-4.0508-7.0547s1.5352-5.5938 4.0508-7.0547l195.96-114.31c2.5312-1.4766 5.6914-1.4766 8.2305 0l195.96 114.31c2.5078 1.4609 4.0508 4.1562 4.0508 7.0547s-1.543 5.5938-4.0508 7.0547l-195.96 114.31c-1.2734 0.74609-2.7031 1.1133-4.1172 1.1133z" fill-rule="evenodd"/>
 </g>
 <path d="m293.47 261.69 82.527 48.145 82.531-48.145-82.531-48.141zm82.527 65.766c-1.4141 0-2.8438-0.37891-4.1094-1.1211l-98.73-57.59c-2.5156-1.4609-4.0508-4.1562-4.0508-7.0547s1.5352-5.5938 4.0508-7.0547l98.73-57.586c2.5312-1.4883 5.6914-1.4883 8.2227 0l98.734 57.586c2.5156 1.4609 4.0508 4.1562 4.0508 7.0547s-1.5352 5.5938-4.0508 7.0547l-98.734 57.59c-1.2656 0.74219-2.6953 1.1211-4.1133 1.1211z" fill-rule="evenodd"/>
</svg>
