<?xml version="1.0" encoding="UTF-8"?>
<svg width="752pt" height="752pt" version="1.1" viewBox="0 0 752 752" xmlns="http://www.w3.org/2000/svg">
 <defs>
  <clipPath id="d">
   <path d="m139.21 249h363.79v363.79h-363.79z"/>
  </clipPath>
  <clipPath id="c">
   <path d="m249 139.21h363.79v363.79h-363.79z"/>
  </clipPath>
  <clipPath id="b">
   <path d="m139.21 139.21h473.58v126.79h-473.58z"/>
  </clipPath>
  <clipPath id="a">
   <path d="m139.21 486h473.58v126.79h-473.58z"/>
  </clipPath>
 </defs>
 <g>
  <g clip-path="url(#d)">
   <path d="m155 597h331.51v-331.5h-331.51zm339.4 15.789h-347.29c-4.3594 0-7.8945-3.5391-7.8945-7.8945v-347.29c0-4.3555 3.5352-7.8906 7.8945-7.8906h347.29c4.3555 0 7.8906 3.5352 7.8906 7.8906v347.29c0 4.3555-3.5352 7.8945-7.8906 7.8945z" fill-rule="evenodd"/>
  </g>
  <g clip-path="url(#c)">
   <path d="m265.5 486.5h331.5v-331.51h-331.5zm339.4 15.785h-347.29c-4.3555 0-7.8906-3.5352-7.8906-7.8906v-347.29c0-4.3594 3.5352-7.8945 7.8906-7.8945h347.29c4.3672 0 7.8945 3.5352 7.8945 7.8945v347.29c0 4.3555-3.5273 7.8906-7.8945 7.8906z" fill-rule="evenodd"/>
  </g>
  <g clip-path="url(#b)">
   <path d="m494.4 265.5h-347.29c-3.1875 0-6.0703-1.9258-7.293-4.8711-1.2227-2.9531-0.54297-6.3438 1.7109-8.6016l110.5-110.5c3.0859-3.0859 8.0742-3.0859 11.16 0 3.0859 3.0859 3.0859 8.0742 0 11.16l-97.027 97.031h324.97l108.19-108.19c3.0859-3.0859 8.0742-3.0859 11.16 0 3.0859 3.0859 3.0859 8.0742 0 11.16l-110.5 110.5c-1.4766 1.4844-3.4922 2.3125-5.582 2.3125" fill-rule="evenodd"/>
  </g>
  <g clip-path="url(#a)">
   <path d="m166.16 597h324.97l94.719-94.715h-324.97zm328.24 15.789h-347.29c-3.1875 0-6.0703-1.9258-7.293-4.8711-1.2227-2.9531-0.54297-6.3477 1.7109-8.6016l110.5-110.5c1.4766-1.4844 3.4883-2.3125 5.582-2.3125h347.29c3.1875 0 6.0664 1.9258 7.293 4.8711 1.2227 2.9492 0.54297 6.3438-1.7148 8.6016l-110.5 110.5c-1.4844 1.4844-3.4922 2.3125-5.582 2.3125z" fill-rule="evenodd"/>
  </g>
 </g>
</svg>
