<?xml version="1.0" encoding="UTF-8"?>
<svg width="752pt" height="752pt" version="1.1" viewBox="0 0 752 752" xmlns="http://www.w3.org/2000/svg">
 <path d="m402.31 339.73 156.44 19.91c21.332-68.266 29.867-140.79 22.754-184.88-61.152 54.043-120.88 109.51-179.19 164.97zm-147.91-59.73 22.754 156.44c24.176-25.598 48.355-51.199 73.953-75.375 7.1094-7.1094 12.801-14.223 19.91-21.332l-7.1094-128c-41.242 18.488-75.375 39.82-108.09 66.84l-1.4219 1.4219zm34.133 173.5 180.61 69.688c35.555-32.711 62.574-86.754 82.484-143.64l-167.82-22.754c-7.1094 5.6875-12.801 12.801-18.488 18.488-27.02 25.598-52.621 52.621-76.797 78.219zm163.55 83.906-179.19-66.84c-34.133 36.977-65.418 75.375-92.441 113.77 100.97 18.488 207.64 0 271.63-46.93zm-193.41-81.062-22.754-159.28c-59.73 63.996-76.797 157.86-62.574 261.68 25.598-34.133 55.465-68.266 85.328-102.39zm125.15-251.72 7.1094 116.62c55.465-52.621 113.77-103.82 172.08-156.44-71.109 7.1094-129.42 19.91-179.19 39.82z" fill-rule="evenodd"/>
</svg>
